<?xml version="1.0" encoding="utf-8" standalone="no"?>
<!DOCTYPE svg PUBLIC "-//W3C//DTD SVG 1.1//EN"
  "http://www.w3.org/Graphics/SVG/1.1/DTD/svg11.dtd">
<svg xmlns:xlink="http://www.w3.org/1999/xlink" width="1029.566469pt" height="394.144pt" viewBox="0 0 1029.566469 394.144" xmlns="http://www.w3.org/2000/svg" version="1.1">
 <metadata>
  <rdf:RDF xmlns:dc="http://purl.org/dc/elements/1.1/" xmlns:cc="http://creativecommons.org/ns#" xmlns:rdf="http://www.w3.org/1999/02/22-rdf-syntax-ns#">
   <cc:Work>
    <dc:type rdf:resource="http://purl.org/dc/dcmitype/StillImage"/>
    <dc:date>2023-09-07T21:42:28.221911</dc:date>
    <dc:format>image/svg+xml</dc:format>
    <dc:creator>
     <cc:Agent>
      <dc:title>Matplotlib v3.7.1, https://matplotlib.org/</dc:title>
     </cc:Agent>
    </dc:creator>
   </cc:Work>
  </rdf:RDF>
 </metadata>
 <defs>
  <style type="text/css">*{stroke-linejoin: round; stroke-linecap: butt}</style>
 </defs>
 <g id="figure_1">
  <g id="patch_1">
   <path d="M 0 394.144 
L 1029.566469 394.144 
L 1029.566469 0 
L 0 0 
z
" style="fill: #fdeede"/>
  </g>
  <g id="axes_1">
   <g id="patch_2">
    <path d="M 37.105 351.392875 
L 107.567349 351.392875 
L 107.567349 49.192875 
L 37.105 49.192875 
z
" style="fill: #fdeede"/>
   </g>
   <g id="matplotlib.axis_1">
    <g id="xtick_1">
     <g id="line2d_1">
      <defs>
       <path id="m02abf337ce" d="M 0 0 
L 0 7 
" style="stroke: #000000; stroke-opacity: 0.4; stroke-width: 0.8"/>
      </defs>
      <g>
       <use xlink:href="#m02abf337ce" x="40.307834" y="351.392875" style="fill-opacity: 0.4; stroke: #000000; stroke-opacity: 0.4; stroke-width: 0.8"/>
      </g>
     </g>
     <g id="text_1">
      <!-- 3 days -->
      <g transform="translate(20.420647 371.011) scale(0.12 -0.12)">
       <defs>
        <path id="DejaVuSans-33" d="M 2597 2516 
Q 3050 2419 3304 2112 
Q 3559 1806 3559 1356 
Q 3559 666 3084 287 
Q 2609 -91 1734 -91 
Q 1441 -91 1130 -33 
Q 819 25 488 141 
L 488 750 
Q 750 597 1062 519 
Q 1375 441 1716 441 
Q 2309 441 2620 675 
Q 2931 909 2931 1356 
Q 2931 1769 2642 2001 
Q 2353 2234 1838 2234 
L 1294 2234 
L 1294 2753 
L 1863 2753 
Q 2328 2753 2575 2939 
Q 2822 3125 2822 3475 
Q 2822 3834 2567 4026 
Q 2313 4219 1838 4219 
Q 1578 4219 1281 4162 
Q 984 4106 628 3988 
L 628 4550 
Q 988 4650 1302 4700 
Q 1616 4750 1894 4750 
Q 2613 4750 3031 4423 
Q 3450 4097 3450 3541 
Q 3450 3153 3228 2886 
Q 3006 2619 2597 2516 
z
" transform="scale(0.015625)"/>
        <path id="DejaVuSans-20" transform="scale(0.015625)"/>
        <path id="DejaVuSans-64" d="M 2906 2969 
L 2906 4863 
L 3481 4863 
L 3481 0 
L 2906 0 
L 2906 525 
Q 2725 213 2448 61 
Q 2172 -91 1784 -91 
Q 1150 -91 751 415 
Q 353 922 353 1747 
Q 353 2572 751 3078 
Q 1150 3584 1784 3584 
Q 2172 3584 2448 3432 
Q 2725 3281 2906 2969 
z
M 947 1747 
Q 947 1113 1208 752 
Q 1469 391 1925 391 
Q 2381 391 2643 752 
Q 2906 1113 2906 1747 
Q 2906 2381 2643 2742 
Q 2381 3103 1925 3103 
Q 1469 3103 1208 2742 
Q 947 2381 947 1747 
z
" transform="scale(0.015625)"/>
        <path id="DejaVuSans-61" d="M 2194 1759 
Q 1497 1759 1228 1600 
Q 959 1441 959 1056 
Q 959 750 1161 570 
Q 1363 391 1709 391 
Q 2188 391 2477 730 
Q 2766 1069 2766 1631 
L 2766 1759 
L 2194 1759 
z
M 3341 1997 
L 3341 0 
L 2766 0 
L 2766 531 
Q 2569 213 2275 61 
Q 1981 -91 1556 -91 
Q 1019 -91 701 211 
Q 384 513 384 1019 
Q 384 1609 779 1909 
Q 1175 2209 1959 2209 
L 2766 2209 
L 2766 2266 
Q 2766 2663 2505 2880 
Q 2244 3097 1772 3097 
Q 1472 3097 1187 3025 
Q 903 2953 641 2809 
L 641 3341 
Q 956 3463 1253 3523 
Q 1550 3584 1831 3584 
Q 2591 3584 2966 3190 
Q 3341 2797 3341 1997 
z
" transform="scale(0.015625)"/>
        <path id="DejaVuSans-79" d="M 2059 -325 
Q 1816 -950 1584 -1140 
Q 1353 -1331 966 -1331 
L 506 -1331 
L 506 -850 
L 844 -850 
Q 1081 -850 1212 -737 
Q 1344 -625 1503 -206 
L 1606 56 
L 191 3500 
L 800 3500 
L 1894 763 
L 2988 3500 
L 3597 3500 
L 2059 -325 
z
" transform="scale(0.015625)"/>
        <path id="DejaVuSans-73" d="M 2834 3397 
L 2834 2853 
Q 2591 2978 2328 3040 
Q 2066 3103 1784 3103 
Q 1356 3103 1142 2972 
Q 928 2841 928 2578 
Q 928 2378 1081 2264 
Q 1234 2150 1697 2047 
L 1894 2003 
Q 2506 1872 2764 1633 
Q 3022 1394 3022 966 
Q 3022 478 2636 193 
Q 2250 -91 1575 -91 
Q 1294 -91 989 -36 
Q 684 19 347 128 
L 347 722 
Q 666 556 975 473 
Q 1284 391 1588 391 
Q 1994 391 2212 530 
Q 2431 669 2431 922 
Q 2431 1156 2273 1281 
Q 2116 1406 1581 1522 
L 1381 1569 
Q 847 1681 609 1914 
Q 372 2147 372 2553 
Q 372 3047 722 3315 
Q 1072 3584 1716 3584 
Q 2034 3584 2315 3537 
Q 2597 3491 2834 3397 
z
" transform="scale(0.015625)"/>
       </defs>
       <use xlink:href="#DejaVuSans-33"/>
       <use xlink:href="#DejaVuSans-20" x="63.623047"/>
       <use xlink:href="#DejaVuSans-64" x="95.410156"/>
       <use xlink:href="#DejaVuSans-61" x="158.886719"/>
       <use xlink:href="#DejaVuSans-79" x="220.166016"/>
       <use xlink:href="#DejaVuSans-73" x="279.345703"/>
      </g>
      <!-- before -->
      <g transform="translate(21.000022 384.448375) scale(0.12 -0.12)">
       <defs>
        <path id="DejaVuSans-62" d="M 3116 1747 
Q 3116 2381 2855 2742 
Q 2594 3103 2138 3103 
Q 1681 3103 1420 2742 
Q 1159 2381 1159 1747 
Q 1159 1113 1420 752 
Q 1681 391 2138 391 
Q 2594 391 2855 752 
Q 3116 1113 3116 1747 
z
M 1159 2969 
Q 1341 3281 1617 3432 
Q 1894 3584 2278 3584 
Q 2916 3584 3314 3078 
Q 3713 2572 3713 1747 
Q 3713 922 3314 415 
Q 2916 -91 2278 -91 
Q 1894 -91 1617 61 
Q 1341 213 1159 525 
L 1159 0 
L 581 0 
L 581 4863 
L 1159 4863 
L 1159 2969 
z
" transform="scale(0.015625)"/>
        <path id="DejaVuSans-65" d="M 3597 1894 
L 3597 1613 
L 953 1613 
Q 991 1019 1311 708 
Q 1631 397 2203 397 
Q 2534 397 2845 478 
Q 3156 559 3463 722 
L 3463 178 
Q 3153 47 2828 -22 
Q 2503 -91 2169 -91 
Q 1331 -91 842 396 
Q 353 884 353 1716 
Q 353 2575 817 3079 
Q 1281 3584 2069 3584 
Q 2775 3584 3186 3129 
Q 3597 2675 3597 1894 
z
M 3022 2063 
Q 3016 2534 2758 2815 
Q 2500 3097 2075 3097 
Q 1594 3097 1305 2825 
Q 1016 2553 972 2059 
L 3022 2063 
z
" transform="scale(0.015625)"/>
        <path id="DejaVuSans-66" d="M 2375 4863 
L 2375 4384 
L 1825 4384 
Q 1516 4384 1395 4259 
Q 1275 4134 1275 3809 
L 1275 3500 
L 2222 3500 
L 2222 3053 
L 1275 3053 
L 1275 0 
L 697 0 
L 697 3053 
L 147 3053 
L 147 3500 
L 697 3500 
L 697 3744 
Q 697 4328 969 4595 
Q 1241 4863 1831 4863 
L 2375 4863 
z
" transform="scale(0.015625)"/>
        <path id="DejaVuSans-6f" d="M 1959 3097 
Q 1497 3097 1228 2736 
Q 959 2375 959 1747 
Q 959 1119 1226 758 
Q 1494 397 1959 397 
Q 2419 397 2687 759 
Q 2956 1122 2956 1747 
Q 2956 2369 2687 2733 
Q 2419 3097 1959 3097 
z
M 1959 3584 
Q 2709 3584 3137 3096 
Q 3566 2609 3566 1747 
Q 3566 888 3137 398 
Q 2709 -91 1959 -91 
Q 1206 -91 779 398 
Q 353 888 353 1747 
Q 353 2609 779 3096 
Q 1206 3584 1959 3584 
z
" transform="scale(0.015625)"/>
        <path id="DejaVuSans-72" d="M 2631 2963 
Q 2534 3019 2420 3045 
Q 2306 3072 2169 3072 
Q 1681 3072 1420 2755 
Q 1159 2438 1159 1844 
L 1159 0 
L 581 0 
L 581 3500 
L 1159 3500 
L 1159 2956 
Q 1341 3275 1631 3429 
Q 1922 3584 2338 3584 
Q 2397 3584 2469 3576 
Q 2541 3569 2628 3553 
L 2631 2963 
z
" transform="scale(0.015625)"/>
       </defs>
       <use xlink:href="#DejaVuSans-62"/>
       <use xlink:href="#DejaVuSans-65" x="63.476562"/>
       <use xlink:href="#DejaVuSans-66" x="125"/>
       <use xlink:href="#DejaVuSans-6f" x="160.205078"/>
       <use xlink:href="#DejaVuSans-72" x="221.386719"/>
       <use xlink:href="#DejaVuSans-65" x="260.25"/>
      </g>
     </g>
    </g>
    <g id="xtick_2">
     <g id="line2d_2">
      <g>
       <use xlink:href="#m02abf337ce" x="104.364515" y="351.392875" style="fill-opacity: 0.4; stroke: #000000; stroke-opacity: 0.4; stroke-width: 0.8"/>
      </g>
     </g>
     <g id="text_2">
      <!-- 3 days -->
      <g transform="translate(84.477327 371.011) scale(0.12 -0.12)">
       <use xlink:href="#DejaVuSans-33"/>
       <use xlink:href="#DejaVuSans-20" x="63.623047"/>
       <use xlink:href="#DejaVuSans-64" x="95.410156"/>
       <use xlink:href="#DejaVuSans-61" x="158.886719"/>
       <use xlink:href="#DejaVuSans-79" x="220.166016"/>
       <use xlink:href="#DejaVuSans-73" x="279.345703"/>
      </g>
      <!-- after -->
      <g transform="translate(90.169827 384.448375) scale(0.12 -0.12)">
       <defs>
        <path id="DejaVuSans-74" d="M 1172 4494 
L 1172 3500 
L 2356 3500 
L 2356 3053 
L 1172 3053 
L 1172 1153 
Q 1172 725 1289 603 
Q 1406 481 1766 481 
L 2356 481 
L 2356 0 
L 1766 0 
Q 1100 0 847 248 
Q 594 497 594 1153 
L 594 3053 
L 172 3053 
L 172 3500 
L 594 3500 
L 594 4494 
L 1172 4494 
z
" transform="scale(0.015625)"/>
       </defs>
       <use xlink:href="#DejaVuSans-61"/>
       <use xlink:href="#DejaVuSans-66" x="61.279297"/>
       <use xlink:href="#DejaVuSans-74" x="94.734375"/>
       <use xlink:href="#DejaVuSans-65" x="133.943359"/>
       <use xlink:href="#DejaVuSans-72" x="195.466797"/>
      </g>
     </g>
    </g>
   </g>
   <g id="matplotlib.axis_2">
    <g id="ytick_1">
     <g id="text_3">
      <!-- 90 -->
      <g transform="translate(14.835 355.951938) scale(0.12 -0.12)">
       <defs>
        <path id="DejaVuSans-39" d="M 703 97 
L 703 672 
Q 941 559 1184 500 
Q 1428 441 1663 441 
Q 2288 441 2617 861 
Q 2947 1281 2994 2138 
Q 2813 1869 2534 1725 
Q 2256 1581 1919 1581 
Q 1219 1581 811 2004 
Q 403 2428 403 3163 
Q 403 3881 828 4315 
Q 1253 4750 1959 4750 
Q 2769 4750 3195 4129 
Q 3622 3509 3622 2328 
Q 3622 1225 3098 567 
Q 2575 -91 1691 -91 
Q 1453 -91 1209 -44 
Q 966 3 703 97 
z
M 1959 2075 
Q 2384 2075 2632 2365 
Q 2881 2656 2881 3163 
Q 2881 3666 2632 3958 
Q 2384 4250 1959 4250 
Q 1534 4250 1286 3958 
Q 1038 3666 1038 3163 
Q 1038 2656 1286 2365 
Q 1534 2075 1959 2075 
z
" transform="scale(0.015625)"/>
        <path id="DejaVuSans-30" d="M 2034 4250 
Q 1547 4250 1301 3770 
Q 1056 3291 1056 2328 
Q 1056 1369 1301 889 
Q 1547 409 2034 409 
Q 2525 409 2770 889 
Q 3016 1369 3016 2328 
Q 3016 3291 2770 3770 
Q 2525 4250 2034 4250 
z
M 2034 4750 
Q 2819 4750 3233 4129 
Q 3647 3509 3647 2328 
Q 3647 1150 3233 529 
Q 2819 -91 2034 -91 
Q 1250 -91 836 529 
Q 422 1150 422 2328 
Q 422 3509 836 4129 
Q 1250 4750 2034 4750 
z
" transform="scale(0.015625)"/>
       </defs>
       <use xlink:href="#DejaVuSans-39"/>
       <use xlink:href="#DejaVuSans-30" x="63.623047"/>
      </g>
     </g>
    </g>
    <g id="ytick_2">
     <g id="text_4">
      <!-- 95 -->
      <g transform="translate(14.835 295.511938) scale(0.12 -0.12)">
       <defs>
        <path id="DejaVuSans-35" d="M 691 4666 
L 3169 4666 
L 3169 4134 
L 1269 4134 
L 1269 2991 
Q 1406 3038 1543 3061 
Q 1681 3084 1819 3084 
Q 2600 3084 3056 2656 
Q 3513 2228 3513 1497 
Q 3513 744 3044 326 
Q 2575 -91 1722 -91 
Q 1428 -91 1123 -41 
Q 819 9 494 109 
L 494 744 
Q 775 591 1075 516 
Q 1375 441 1709 441 
Q 2250 441 2565 725 
Q 2881 1009 2881 1497 
Q 2881 1984 2565 2268 
Q 2250 2553 1709 2553 
Q 1456 2553 1204 2497 
Q 953 2441 691 2322 
L 691 4666 
z
" transform="scale(0.015625)"/>
       </defs>
       <use xlink:href="#DejaVuSans-39"/>
       <use xlink:href="#DejaVuSans-35" x="63.623047"/>
      </g>
     </g>
    </g>
    <g id="ytick_3">
     <g id="text_5">
      <!-- 100 -->
      <g transform="translate(7.2 235.071938) scale(0.12 -0.12)">
       <defs>
        <path id="DejaVuSans-31" d="M 794 531 
L 1825 531 
L 1825 4091 
L 703 3866 
L 703 4441 
L 1819 4666 
L 2450 4666 
L 2450 531 
L 3481 531 
L 3481 0 
L 794 0 
L 794 531 
z
" transform="scale(0.015625)"/>
       </defs>
       <use xlink:href="#DejaVuSans-31"/>
       <use xlink:href="#DejaVuSans-30" x="63.623047"/>
       <use xlink:href="#DejaVuSans-30" x="127.246094"/>
      </g>
     </g>
    </g>
    <g id="ytick_4">
     <g id="text_6">
      <!-- 105 -->
      <g transform="translate(7.2 174.631938) scale(0.12 -0.12)">
       <use xlink:href="#DejaVuSans-31"/>
       <use xlink:href="#DejaVuSans-30" x="63.623047"/>
       <use xlink:href="#DejaVuSans-35" x="127.246094"/>
      </g>
     </g>
    </g>
    <g id="ytick_5">
     <g id="text_7">
      <!-- 110 -->
      <g transform="translate(7.2 114.191938) scale(0.12 -0.12)">
       <use xlink:href="#DejaVuSans-31"/>
       <use xlink:href="#DejaVuSans-31" x="63.623047"/>
       <use xlink:href="#DejaVuSans-30" x="127.246094"/>
      </g>
     </g>
    </g>
    <g id="ytick_6">
     <g id="text_8">
      <!-- 115 -->
      <g transform="translate(7.2 53.751938) scale(0.12 -0.12)">
       <use xlink:href="#DejaVuSans-31"/>
       <use xlink:href="#DejaVuSans-31" x="63.623047"/>
       <use xlink:href="#DejaVuSans-35" x="127.246094"/>
      </g>
     </g>
    </g>
   </g>
   <g id="line2d_3">
    <path d="M 40.307834 264.071232 
L 50.983948 240.021076 
L 61.660061 237.364373 
L 72.336175 230.512875 
L 83.012288 114.456889 
L 93.688401 97.817537 
L 104.364515 116.694113 
" clip-path="url(#p2c31e9c813)" style="fill: none; stroke: #144086; stroke-width: 3; stroke-linecap: square"/>
   </g>
   <g id="line2d_4">
    <path d="M 40.307834 264.071232 
L 50.983948 240.021076 
L 61.660061 237.364373 
L 72.336175 230.512875 
L 83.012288 114.456889 
L 93.688401 97.817537 
L 104.364515 116.694113 
" clip-path="url(#p2c31e9c813)" style="fill: none; stroke: #144086; stroke-opacity: 0.2; stroke-width: 3; stroke-linecap: square"/>
   </g>
   <g id="text_9">
    <!-- Announced -->
    <g transform="translate(38.55055 327.216875) scale(0.12 -0.12)">
     <defs>
      <path id="DejaVuSans-41" d="M 2188 4044 
L 1331 1722 
L 3047 1722 
L 2188 4044 
z
M 1831 4666 
L 2547 4666 
L 4325 0 
L 3669 0 
L 3244 1197 
L 1141 1197 
L 716 0 
L 50 0 
L 1831 4666 
z
" transform="scale(0.015625)"/>
      <path id="DejaVuSans-6e" d="M 3513 2113 
L 3513 0 
L 2938 0 
L 2938 2094 
Q 2938 2591 2744 2837 
Q 2550 3084 2163 3084 
Q 1697 3084 1428 2787 
Q 1159 2491 1159 1978 
L 1159 0 
L 581 0 
L 581 3500 
L 1159 3500 
L 1159 2956 
Q 1366 3272 1645 3428 
Q 1925 3584 2291 3584 
Q 2894 3584 3203 3211 
Q 3513 2838 3513 2113 
z
" transform="scale(0.015625)"/>
      <path id="DejaVuSans-75" d="M 544 1381 
L 544 3500 
L 1119 3500 
L 1119 1403 
Q 1119 906 1312 657 
Q 1506 409 1894 409 
Q 2359 409 2629 706 
Q 2900 1003 2900 1516 
L 2900 3500 
L 3475 3500 
L 3475 0 
L 2900 0 
L 2900 538 
Q 2691 219 2414 64 
Q 2138 -91 1772 -91 
Q 1169 -91 856 284 
Q 544 659 544 1381 
z
M 1991 3584 
L 1991 3584 
z
" transform="scale(0.015625)"/>
      <path id="DejaVuSans-63" d="M 3122 3366 
L 3122 2828 
Q 2878 2963 2633 3030 
Q 2388 3097 2138 3097 
Q 1578 3097 1268 2742 
Q 959 2388 959 1747 
Q 959 1106 1268 751 
Q 1578 397 2138 397 
Q 2388 397 2633 464 
Q 2878 531 3122 666 
L 3122 134 
Q 2881 22 2623 -34 
Q 2366 -91 2075 -91 
Q 1284 -91 818 406 
Q 353 903 353 1747 
Q 353 2603 823 3093 
Q 1294 3584 2113 3584 
Q 2378 3584 2631 3529 
Q 2884 3475 3122 3366 
z
" transform="scale(0.015625)"/>
     </defs>
     <use xlink:href="#DejaVuSans-41"/>
     <use xlink:href="#DejaVuSans-6e" x="68.408203"/>
     <use xlink:href="#DejaVuSans-6e" x="131.787109"/>
     <use xlink:href="#DejaVuSans-6f" x="195.166016"/>
     <use xlink:href="#DejaVuSans-75" x="256.347656"/>
     <use xlink:href="#DejaVuSans-6e" x="319.726562"/>
     <use xlink:href="#DejaVuSans-63" x="383.105469"/>
     <use xlink:href="#DejaVuSans-65" x="438.085938"/>
     <use xlink:href="#DejaVuSans-64" x="499.609375"/>
    </g>
   </g>
   <g id="text_10">
    <!-- 2007 -->
    <g transform="translate(57.066175 16.318125) scale(0.12 -0.12)">
     <defs>
      <path id="DejaVuSans-32" d="M 1228 531 
L 3431 531 
L 3431 0 
L 469 0 
L 469 531 
Q 828 903 1448 1529 
Q 2069 2156 2228 2338 
Q 2531 2678 2651 2914 
Q 2772 3150 2772 3378 
Q 2772 3750 2511 3984 
Q 2250 4219 1831 4219 
Q 1534 4219 1204 4116 
Q 875 4013 500 3803 
L 500 4441 
Q 881 4594 1212 4672 
Q 1544 4750 1819 4750 
Q 2544 4750 2975 4387 
Q 3406 4025 3406 3419 
Q 3406 3131 3298 2873 
Q 3191 2616 2906 2266 
Q 2828 2175 2409 1742 
Q 1991 1309 1228 531 
z
" transform="scale(0.015625)"/>
      <path id="DejaVuSans-37" d="M 525 4666 
L 3525 4666 
L 3525 4397 
L 1831 0 
L 1172 0 
L 2766 4134 
L 525 4134 
L 525 4666 
z
" transform="scale(0.015625)"/>
     </defs>
     <use xlink:href="#DejaVuSans-32"/>
     <use xlink:href="#DejaVuSans-30" x="63.623047"/>
     <use xlink:href="#DejaVuSans-30" x="127.246094"/>
     <use xlink:href="#DejaVuSans-37" x="190.869141"/>
    </g>
    <!-- First iPhone -->
    <g transform="translate(37.5493 29.7555) scale(0.12 -0.12)">
     <defs>
      <path id="DejaVuSans-46" d="M 628 4666 
L 3309 4666 
L 3309 4134 
L 1259 4134 
L 1259 2759 
L 3109 2759 
L 3109 2228 
L 1259 2228 
L 1259 0 
L 628 0 
L 628 4666 
z
" transform="scale(0.015625)"/>
      <path id="DejaVuSans-69" d="M 603 3500 
L 1178 3500 
L 1178 0 
L 603 0 
L 603 3500 
z
M 603 4863 
L 1178 4863 
L 1178 4134 
L 603 4134 
L 603 4863 
z
" transform="scale(0.015625)"/>
      <path id="DejaVuSans-50" d="M 1259 4147 
L 1259 2394 
L 2053 2394 
Q 2494 2394 2734 2622 
Q 2975 2850 2975 3272 
Q 2975 3691 2734 3919 
Q 2494 4147 2053 4147 
L 1259 4147 
z
M 628 4666 
L 2053 4666 
Q 2838 4666 3239 4311 
Q 3641 3956 3641 3272 
Q 3641 2581 3239 2228 
Q 2838 1875 2053 1875 
L 1259 1875 
L 1259 0 
L 628 0 
L 628 4666 
z
" transform="scale(0.015625)"/>
      <path id="DejaVuSans-68" d="M 3513 2113 
L 3513 0 
L 2938 0 
L 2938 2094 
Q 2938 2591 2744 2837 
Q 2550 3084 2163 3084 
Q 1697 3084 1428 2787 
Q 1159 2491 1159 1978 
L 1159 0 
L 581 0 
L 581 4863 
L 1159 4863 
L 1159 2956 
Q 1366 3272 1645 3428 
Q 1925 3584 2291 3584 
Q 2894 3584 3203 3211 
Q 3513 2838 3513 2113 
z
" transform="scale(0.015625)"/>
     </defs>
     <use xlink:href="#DejaVuSans-46"/>
     <use xlink:href="#DejaVuSans-69" x="50.269531"/>
     <use xlink:href="#DejaVuSans-72" x="78.052734"/>
     <use xlink:href="#DejaVuSans-73" x="119.166016"/>
     <use xlink:href="#DejaVuSans-74" x="171.265625"/>
     <use xlink:href="#DejaVuSans-20" x="210.474609"/>
     <use xlink:href="#DejaVuSans-69" x="242.261719"/>
     <use xlink:href="#DejaVuSans-50" x="270.044922"/>
     <use xlink:href="#DejaVuSans-68" x="330.347656"/>
     <use xlink:href="#DejaVuSans-6f" x="393.726562"/>
     <use xlink:href="#DejaVuSans-6e" x="454.908203"/>
     <use xlink:href="#DejaVuSans-65" x="518.287109"/>
    </g>
    <!--  -->
    <g transform="translate(72.336175 43.192875) scale(0.12 -0.12)"/>
   </g>
   <g id="line2d_5">
    <defs>
     <path id="m90319ee052" d="M 0 4 
C 1.060812 4 2.078319 3.578535 2.828427 2.828427 
C 3.578535 2.078319 4 1.060812 4 0 
C 4 -1.060812 3.578535 -2.078319 2.828427 -2.828427 
C 2.078319 -3.578535 1.060812 -4 0 -4 
C -1.060812 -4 -2.078319 -3.578535 -2.828427 -2.828427 
C -3.578535 -2.078319 -4 -1.060812 -4 0 
C -4 1.060812 -3.578535 2.078319 -2.828427 2.828427 
C -2.078319 3.578535 -1.060812 4 0 4 
z
" style="stroke: #144086"/>
    </defs>
    <g clip-path="url(#p2c31e9c813)">
     <use xlink:href="#m90319ee052" x="72.336175" y="230.512875" style="fill: #ffffff; stroke: #144086"/>
    </g>
   </g>
  </g>
  <g id="axes_2">
   <g id="patch_3">
    <path d="M 125.594412 351.392875 
L 196.056761 351.392875 
L 196.056761 49.192875 
L 125.594412 49.192875 
z
" style="fill: #fdeede"/>
   </g>
   <g id="matplotlib.axis_3">
    <g id="xtick_3">
     <g id="line2d_6">
      <g>
       <use xlink:href="#m02abf337ce" x="128.797246" y="351.392875" style="fill-opacity: 0.4; stroke: #000000; stroke-opacity: 0.4; stroke-width: 0.8"/>
      </g>
     </g>
    </g>
    <g id="xtick_4">
     <g id="line2d_7">
      <g>
       <use xlink:href="#m02abf337ce" x="192.853927" y="351.392875" style="fill-opacity: 0.4; stroke: #000000; stroke-opacity: 0.4; stroke-width: 0.8"/>
      </g>
     </g>
    </g>
   </g>
   <g id="matplotlib.axis_4">
    <g id="ytick_7"/>
    <g id="ytick_8"/>
    <g id="ytick_9"/>
    <g id="ytick_10"/>
    <g id="ytick_11"/>
    <g id="ytick_12"/>
   </g>
   <g id="line2d_8">
    <path d="M 128.797246 236.526805 
L 139.473359 221.818824 
L 150.149473 210.379282 
L 160.825586 230.512875 
L 171.5017 260.517158 
L 182.177813 234.304266 
L 192.853927 253.195851 
" clip-path="url(#paa18fd5b55)" style="fill: none; stroke: #144086; stroke-width: 3; stroke-linecap: square"/>
   </g>
   <g id="line2d_9">
    <path d="M 128.797246 264.071232 
L 139.473359 240.021076 
L 150.149473 237.364373 
L 160.825586 230.512875 
L 171.5017 114.456889 
L 182.177813 97.817537 
L 192.853927 116.694113 
" clip-path="url(#paa18fd5b55)" style="fill: none; stroke: #144086; stroke-opacity: 0.2; stroke-width: 3; stroke-linecap: square"/>
   </g>
   <g id="text_11">
    <!-- 2008 -->
    <g transform="translate(145.555586 16.318125) scale(0.12 -0.12)">
     <defs>
      <path id="DejaVuSans-38" d="M 2034 2216 
Q 1584 2216 1326 1975 
Q 1069 1734 1069 1313 
Q 1069 891 1326 650 
Q 1584 409 2034 409 
Q 2484 409 2743 651 
Q 3003 894 3003 1313 
Q 3003 1734 2745 1975 
Q 2488 2216 2034 2216 
z
M 1403 2484 
Q 997 2584 770 2862 
Q 544 3141 544 3541 
Q 544 4100 942 4425 
Q 1341 4750 2034 4750 
Q 2731 4750 3128 4425 
Q 3525 4100 3525 3541 
Q 3525 3141 3298 2862 
Q 3072 2584 2669 2484 
Q 3125 2378 3379 2068 
Q 3634 1759 3634 1313 
Q 3634 634 3220 271 
Q 2806 -91 2034 -91 
Q 1263 -91 848 271 
Q 434 634 434 1313 
Q 434 1759 690 2068 
Q 947 2378 1403 2484 
z
M 1172 3481 
Q 1172 3119 1398 2916 
Q 1625 2713 2034 2713 
Q 2441 2713 2670 2916 
Q 2900 3119 2900 3481 
Q 2900 3844 2670 4047 
Q 2441 4250 2034 4250 
Q 1625 4250 1398 4047 
Q 1172 3844 1172 3481 
z
" transform="scale(0.015625)"/>
     </defs>
     <use xlink:href="#DejaVuSans-32"/>
     <use xlink:href="#DejaVuSans-30" x="63.623047"/>
     <use xlink:href="#DejaVuSans-30" x="127.246094"/>
     <use xlink:href="#DejaVuSans-38" x="190.869141"/>
    </g>
    <!-- 3G -->
    <g transform="translate(152.359024 29.7555) scale(0.12 -0.12)">
     <defs>
      <path id="DejaVuSans-47" d="M 3809 666 
L 3809 1919 
L 2778 1919 
L 2778 2438 
L 4434 2438 
L 4434 434 
Q 4069 175 3628 42 
Q 3188 -91 2688 -91 
Q 1594 -91 976 548 
Q 359 1188 359 2328 
Q 359 3472 976 4111 
Q 1594 4750 2688 4750 
Q 3144 4750 3555 4637 
Q 3966 4525 4313 4306 
L 4313 3634 
Q 3963 3931 3569 4081 
Q 3175 4231 2741 4231 
Q 1884 4231 1454 3753 
Q 1025 3275 1025 2328 
Q 1025 1384 1454 906 
Q 1884 428 2741 428 
Q 3075 428 3337 486 
Q 3600 544 3809 666 
z
" transform="scale(0.015625)"/>
     </defs>
     <use xlink:href="#DejaVuSans-33"/>
     <use xlink:href="#DejaVuSans-47" x="63.623047"/>
    </g>
    <!--  -->
    <g transform="translate(160.825586 43.192875) scale(0.12 -0.12)"/>
   </g>
   <g id="line2d_10">
    <g clip-path="url(#paa18fd5b55)">
     <use xlink:href="#m90319ee052" x="160.825586" y="230.512875" style="fill: #ffffff; stroke: #144086"/>
    </g>
   </g>
  </g>
  <g id="axes_3">
   <g id="patch_4">
    <path d="M 214.083824 351.392875 
L 284.546173 351.392875 
L 284.546173 49.192875 
L 214.083824 49.192875 
z
" style="fill: #fdeede"/>
   </g>
   <g id="matplotlib.axis_5">
    <g id="xtick_5">
     <g id="line2d_11">
      <g>
       <use xlink:href="#m02abf337ce" x="217.286658" y="351.392875" style="fill-opacity: 0.4; stroke: #000000; stroke-opacity: 0.4; stroke-width: 0.8"/>
      </g>
     </g>
    </g>
    <g id="xtick_6">
     <g id="line2d_12">
      <g>
       <use xlink:href="#m02abf337ce" x="281.343339" y="351.392875" style="fill-opacity: 0.4; stroke: #000000; stroke-opacity: 0.4; stroke-width: 0.8"/>
      </g>
     </g>
    </g>
   </g>
   <g id="matplotlib.axis_6">
    <g id="ytick_13"/>
    <g id="ytick_14"/>
    <g id="ytick_15"/>
    <g id="ytick_16"/>
    <g id="ytick_17"/>
    <g id="ytick_18"/>
   </g>
   <g id="line2d_13">
    <path d="M 217.286658 262.619786 
L 227.962771 261.527143 
L 238.638885 217.989499 
L 249.314998 230.512875 
L 259.991112 230.596925 
L 270.667225 243.456499 
L 281.343339 266.402014 
" clip-path="url(#pb940052ee3)" style="fill: none; stroke: #e84b7e; stroke-width: 3; stroke-linecap: square"/>
   </g>
   <g id="line2d_14">
    <path d="M 217.286658 264.071232 
L 227.962771 240.021076 
L 238.638885 237.364373 
L 249.314998 230.512875 
L 259.991112 114.456889 
L 270.667225 97.817537 
L 281.343339 116.694113 
" clip-path="url(#pb940052ee3)" style="fill: none; stroke: #144086; stroke-opacity: 0.2; stroke-width: 3; stroke-linecap: square"/>
   </g>
   <g id="text_12">
    <!-- 2009 -->
    <g transform="translate(234.044998 16.318125) scale(0.12 -0.12)">
     <use xlink:href="#DejaVuSans-32"/>
     <use xlink:href="#DejaVuSans-30" x="63.623047"/>
     <use xlink:href="#DejaVuSans-30" x="127.246094"/>
     <use xlink:href="#DejaVuSans-39" x="190.869141"/>
    </g>
    <!-- 3GS -->
    <g transform="translate(237.039373 29.7555) scale(0.12 -0.12)">
     <defs>
      <path id="DejaVuSans-53" d="M 3425 4513 
L 3425 3897 
Q 3066 4069 2747 4153 
Q 2428 4238 2131 4238 
Q 1616 4238 1336 4038 
Q 1056 3838 1056 3469 
Q 1056 3159 1242 3001 
Q 1428 2844 1947 2747 
L 2328 2669 
Q 3034 2534 3370 2195 
Q 3706 1856 3706 1288 
Q 3706 609 3251 259 
Q 2797 -91 1919 -91 
Q 1588 -91 1214 -16 
Q 841 59 441 206 
L 441 856 
Q 825 641 1194 531 
Q 1563 422 1919 422 
Q 2459 422 2753 634 
Q 3047 847 3047 1241 
Q 3047 1584 2836 1778 
Q 2625 1972 2144 2069 
L 1759 2144 
Q 1053 2284 737 2584 
Q 422 2884 422 3419 
Q 422 4038 858 4394 
Q 1294 4750 2059 4750 
Q 2388 4750 2728 4690 
Q 3069 4631 3425 4513 
z
" transform="scale(0.015625)"/>
     </defs>
     <use xlink:href="#DejaVuSans-33"/>
     <use xlink:href="#DejaVuSans-47" x="63.623047"/>
     <use xlink:href="#DejaVuSans-53" x="141.113281"/>
    </g>
    <!--  -->
    <g transform="translate(249.314998 43.192875) scale(0.12 -0.12)"/>
   </g>
   <g id="line2d_15">
    <g clip-path="url(#pb940052ee3)">
     <use xlink:href="#m90319ee052" x="249.314998" y="230.512875" style="fill: #ffffff; stroke: #144086"/>
    </g>
   </g>
  </g>
  <g id="axes_4">
   <g id="patch_5">
    <path d="M 302.573236 351.392875 
L 373.035585 351.392875 
L 373.035585 49.192875 
L 302.573236 49.192875 
z
" style="fill: #fdeede"/>
   </g>
   <g id="matplotlib.axis_7">
    <g id="xtick_7">
     <g id="line2d_16">
      <g>
       <use xlink:href="#m02abf337ce" x="305.77607" y="351.392875" style="fill-opacity: 0.4; stroke: #000000; stroke-opacity: 0.4; stroke-width: 0.8"/>
      </g>
     </g>
    </g>
    <g id="xtick_8">
     <g id="line2d_17">
      <g>
       <use xlink:href="#m02abf337ce" x="369.832751" y="351.392875" style="fill-opacity: 0.4; stroke: #000000; stroke-opacity: 0.4; stroke-width: 0.8"/>
      </g>
     </g>
    </g>
   </g>
   <g id="matplotlib.axis_8">
    <g id="ytick_19"/>
    <g id="ytick_20"/>
    <g id="ytick_21"/>
    <g id="ytick_22"/>
    <g id="ytick_23"/>
    <g id="ytick_24"/>
   </g>
   <g id="line2d_18">
    <path d="M 305.77607 266.125648 
L 316.452183 268.682186 
L 327.128297 251.718048 
L 337.80441 230.512875 
L 348.480524 236.226004 
L 359.156637 229.531479 
L 369.832751 226.972838 
" clip-path="url(#ped0fa540d2)" style="fill: none; stroke: #144086; stroke-width: 3; stroke-linecap: square"/>
   </g>
   <g id="line2d_19">
    <path d="M 305.77607 264.071232 
L 316.452183 240.021076 
L 327.128297 237.364373 
L 337.80441 230.512875 
L 348.480524 114.456889 
L 359.156637 97.817537 
L 369.832751 116.694113 
" clip-path="url(#ped0fa540d2)" style="fill: none; stroke: #144086; stroke-opacity: 0.2; stroke-width: 3; stroke-linecap: square"/>
   </g>
   <g id="text_13">
    <!-- 2011 -->
    <g transform="translate(322.53441 16.318125) scale(0.12 -0.12)">
     <use xlink:href="#DejaVuSans-32"/>
     <use xlink:href="#DejaVuSans-30" x="63.623047"/>
     <use xlink:href="#DejaVuSans-31" x="127.246094"/>
     <use xlink:href="#DejaVuSans-31" x="190.869141"/>
    </g>
    <!-- 4 -->
    <g transform="translate(333.98691 29.7555) scale(0.12 -0.12)">
     <defs>
      <path id="DejaVuSans-34" d="M 2419 4116 
L 825 1625 
L 2419 1625 
L 2419 4116 
z
M 2253 4666 
L 3047 4666 
L 3047 1625 
L 3713 1625 
L 3713 1100 
L 3047 1100 
L 3047 0 
L 2419 0 
L 2419 1100 
L 313 1100 
L 313 1709 
L 2253 4666 
z
" transform="scale(0.015625)"/>
     </defs>
     <use xlink:href="#DejaVuSans-34"/>
    </g>
    <!--  -->
    <g transform="translate(337.80441 43.192875) scale(0.12 -0.12)"/>
   </g>
   <g id="line2d_20">
    <g clip-path="url(#ped0fa540d2)">
     <use xlink:href="#m90319ee052" x="337.80441" y="230.512875" style="fill: #ffffff; stroke: #144086"/>
    </g>
   </g>
  </g>
  <g id="axes_5">
   <g id="patch_6">
    <path d="M 391.062648 351.392875 
L 461.524997 351.392875 
L 461.524997 49.192875 
L 391.062648 49.192875 
z
" style="fill: #fdeede"/>
   </g>
   <g id="matplotlib.axis_9">
    <g id="xtick_9">
     <g id="line2d_21">
      <g>
       <use xlink:href="#m02abf337ce" x="394.265482" y="351.392875" style="fill-opacity: 0.4; stroke: #000000; stroke-opacity: 0.4; stroke-width: 0.8"/>
      </g>
     </g>
    </g>
    <g id="xtick_10">
     <g id="line2d_22">
      <g>
       <use xlink:href="#m02abf337ce" x="458.322163" y="351.392875" style="fill-opacity: 0.4; stroke: #000000; stroke-opacity: 0.4; stroke-width: 0.8"/>
      </g>
     </g>
    </g>
   </g>
   <g id="matplotlib.axis_10">
    <g id="ytick_25"/>
    <g id="ytick_26"/>
    <g id="ytick_27"/>
    <g id="ytick_28"/>
    <g id="ytick_29"/>
    <g id="ytick_30"/>
   </g>
   <g id="line2d_23">
    <path d="M 394.265482 142.249853 
L 404.941595 190.011927 
L 415.617709 211.795306 
L 426.293822 230.512875 
L 436.969936 252.167167 
L 447.646049 234.514562 
L 458.322163 226.608003 
" clip-path="url(#p325d68c6c7)" style="fill: none; stroke: #e84b7e; stroke-width: 3; stroke-linecap: square"/>
   </g>
   <g id="line2d_24">
    <path d="M 394.265482 264.071232 
L 404.941595 240.021076 
L 415.617709 237.364373 
L 426.293822 230.512875 
L 436.969936 114.456889 
L 447.646049 97.817537 
L 458.322163 116.694113 
" clip-path="url(#p325d68c6c7)" style="fill: none; stroke: #144086; stroke-opacity: 0.2; stroke-width: 3; stroke-linecap: square"/>
   </g>
   <g id="text_14">
    <!-- 2011 -->
    <g transform="translate(411.023822 16.318125) scale(0.12 -0.12)">
     <use xlink:href="#DejaVuSans-32"/>
     <use xlink:href="#DejaVuSans-30" x="63.623047"/>
     <use xlink:href="#DejaVuSans-31" x="127.246094"/>
     <use xlink:href="#DejaVuSans-31" x="190.869141"/>
    </g>
    <!-- 4S -->
    <g transform="translate(418.66726 29.7555) scale(0.12 -0.12)">
     <use xlink:href="#DejaVuSans-34"/>
     <use xlink:href="#DejaVuSans-53" x="63.623047"/>
    </g>
    <!--  -->
    <g transform="translate(426.293822 43.192875) scale(0.12 -0.12)"/>
   </g>
   <g id="line2d_25">
    <g clip-path="url(#p325d68c6c7)">
     <use xlink:href="#m90319ee052" x="426.293822" y="230.512875" style="fill: #ffffff; stroke: #144086"/>
    </g>
   </g>
  </g>
  <g id="axes_6">
   <g id="patch_7">
    <path d="M 479.55206 351.392875 
L 550.014409 351.392875 
L 550.014409 49.192875 
L 479.55206 49.192875 
z
" style="fill: #fdeede"/>
   </g>
   <g id="matplotlib.axis_11">
    <g id="xtick_11">
     <g id="line2d_26">
      <g>
       <use xlink:href="#m02abf337ce" x="482.754894" y="351.392875" style="fill-opacity: 0.4; stroke: #000000; stroke-opacity: 0.4; stroke-width: 0.8"/>
      </g>
     </g>
     <g id="text_15">
      <!-- 3 days -->
      <g transform="translate(462.867706 371.011) scale(0.12 -0.12)">
       <use xlink:href="#DejaVuSans-33"/>
       <use xlink:href="#DejaVuSans-20" x="63.623047"/>
       <use xlink:href="#DejaVuSans-64" x="95.410156"/>
       <use xlink:href="#DejaVuSans-61" x="158.886719"/>
       <use xlink:href="#DejaVuSans-79" x="220.166016"/>
       <use xlink:href="#DejaVuSans-73" x="279.345703"/>
      </g>
      <!-- before -->
      <g transform="translate(463.447081 384.448375) scale(0.12 -0.12)">
       <use xlink:href="#DejaVuSans-62"/>
       <use xlink:href="#DejaVuSans-65" x="63.476562"/>
       <use xlink:href="#DejaVuSans-66" x="125"/>
       <use xlink:href="#DejaVuSans-6f" x="160.205078"/>
       <use xlink:href="#DejaVuSans-72" x="221.386719"/>
       <use xlink:href="#DejaVuSans-65" x="260.25"/>
      </g>
     </g>
    </g>
    <g id="xtick_12">
     <g id="line2d_27">
      <g>
       <use xlink:href="#m02abf337ce" x="546.811575" y="351.392875" style="fill-opacity: 0.4; stroke: #000000; stroke-opacity: 0.4; stroke-width: 0.8"/>
      </g>
     </g>
     <g id="text_16">
      <!-- 3 days -->
      <g transform="translate(526.924387 371.011) scale(0.12 -0.12)">
       <use xlink:href="#DejaVuSans-33"/>
       <use xlink:href="#DejaVuSans-20" x="63.623047"/>
       <use xlink:href="#DejaVuSans-64" x="95.410156"/>
       <use xlink:href="#DejaVuSans-61" x="158.886719"/>
       <use xlink:href="#DejaVuSans-79" x="220.166016"/>
       <use xlink:href="#DejaVuSans-73" x="279.345703"/>
      </g>
      <!-- after -->
      <g transform="translate(532.616887 384.448375) scale(0.12 -0.12)">
       <use xlink:href="#DejaVuSans-61"/>
       <use xlink:href="#DejaVuSans-66" x="61.279297"/>
       <use xlink:href="#DejaVuSans-74" x="94.734375"/>
       <use xlink:href="#DejaVuSans-65" x="133.943359"/>
       <use xlink:href="#DejaVuSans-72" x="195.466797"/>
      </g>
     </g>
    </g>
   </g>
   <g id="matplotlib.axis_12">
    <g id="ytick_31"/>
    <g id="ytick_32"/>
    <g id="ytick_33"/>
    <g id="ytick_34"/>
    <g id="ytick_35"/>
    <g id="ytick_36"/>
   </g>
   <g id="line2d_28">
    <path d="M 482.754894 210.210618 
L 493.431007 205.860135 
L 504.107121 233.666976 
L 514.783234 230.512875 
L 525.459348 211.443255 
L 536.135461 188.630407 
L 546.811575 171.600076 
" clip-path="url(#p051973195f)" style="fill: none; stroke: #144086; stroke-width: 3; stroke-linecap: square"/>
   </g>
   <g id="line2d_29">
    <path d="M 482.754894 264.071232 
L 493.431007 240.021076 
L 504.107121 237.364373 
L 514.783234 230.512875 
L 525.459348 114.456889 
L 536.135461 97.817537 
L 546.811575 116.694113 
" clip-path="url(#p051973195f)" style="fill: none; stroke: #144086; stroke-opacity: 0.2; stroke-width: 3; stroke-linecap: square"/>
   </g>
   <g id="patch_8">
    <path d="M 497.220817 289.748983 
Q 529.195988 273.112053 517.933288 239.50341 
" style="fill: none; stroke: #000000; stroke-linecap: round"/>
    <path d="M 517.182848 244.817245 
L 517.933288 239.50341 
L 521.734092 243.292063 
z
" style="stroke: #000000; stroke-linecap: round"/>
   </g>
   <g id="text_17">
    <!-- Tim Cook's first iPhone -->
    <g transform="translate(356.497882 301.6915) scale(0.12 -0.12)">
     <defs>
      <path id="DejaVuSans-54" d="M -19 4666 
L 3928 4666 
L 3928 4134 
L 2272 4134 
L 2272 0 
L 1638 0 
L 1638 4134 
L -19 4134 
L -19 4666 
z
" transform="scale(0.015625)"/>
      <path id="DejaVuSans-6d" d="M 3328 2828 
Q 3544 3216 3844 3400 
Q 4144 3584 4550 3584 
Q 5097 3584 5394 3201 
Q 5691 2819 5691 2113 
L 5691 0 
L 5113 0 
L 5113 2094 
Q 5113 2597 4934 2840 
Q 4756 3084 4391 3084 
Q 3944 3084 3684 2787 
Q 3425 2491 3425 1978 
L 3425 0 
L 2847 0 
L 2847 2094 
Q 2847 2600 2669 2842 
Q 2491 3084 2119 3084 
Q 1678 3084 1418 2786 
Q 1159 2488 1159 1978 
L 1159 0 
L 581 0 
L 581 3500 
L 1159 3500 
L 1159 2956 
Q 1356 3278 1631 3431 
Q 1906 3584 2284 3584 
Q 2666 3584 2933 3390 
Q 3200 3197 3328 2828 
z
" transform="scale(0.015625)"/>
      <path id="DejaVuSans-43" d="M 4122 4306 
L 4122 3641 
Q 3803 3938 3442 4084 
Q 3081 4231 2675 4231 
Q 1875 4231 1450 3742 
Q 1025 3253 1025 2328 
Q 1025 1406 1450 917 
Q 1875 428 2675 428 
Q 3081 428 3442 575 
Q 3803 722 4122 1019 
L 4122 359 
Q 3791 134 3420 21 
Q 3050 -91 2638 -91 
Q 1578 -91 968 557 
Q 359 1206 359 2328 
Q 359 3453 968 4101 
Q 1578 4750 2638 4750 
Q 3056 4750 3426 4639 
Q 3797 4528 4122 4306 
z
" transform="scale(0.015625)"/>
      <path id="DejaVuSans-6b" d="M 581 4863 
L 1159 4863 
L 1159 1991 
L 2875 3500 
L 3609 3500 
L 1753 1863 
L 3688 0 
L 2938 0 
L 1159 1709 
L 1159 0 
L 581 0 
L 581 4863 
z
" transform="scale(0.015625)"/>
      <path id="DejaVuSans-27" d="M 1147 4666 
L 1147 2931 
L 616 2931 
L 616 4666 
L 1147 4666 
z
" transform="scale(0.015625)"/>
     </defs>
     <use xlink:href="#DejaVuSans-54"/>
     <use xlink:href="#DejaVuSans-69" x="57.958984"/>
     <use xlink:href="#DejaVuSans-6d" x="85.742188"/>
     <use xlink:href="#DejaVuSans-20" x="183.154297"/>
     <use xlink:href="#DejaVuSans-43" x="214.941406"/>
     <use xlink:href="#DejaVuSans-6f" x="284.765625"/>
     <use xlink:href="#DejaVuSans-6f" x="345.947266"/>
     <use xlink:href="#DejaVuSans-6b" x="407.128906"/>
     <use xlink:href="#DejaVuSans-27" x="465.039062"/>
     <use xlink:href="#DejaVuSans-73" x="492.529297"/>
     <use xlink:href="#DejaVuSans-20" x="544.628906"/>
     <use xlink:href="#DejaVuSans-66" x="576.416016"/>
     <use xlink:href="#DejaVuSans-69" x="611.621094"/>
     <use xlink:href="#DejaVuSans-72" x="639.404297"/>
     <use xlink:href="#DejaVuSans-73" x="680.517578"/>
     <use xlink:href="#DejaVuSans-74" x="732.617188"/>
     <use xlink:href="#DejaVuSans-20" x="771.826172"/>
     <use xlink:href="#DejaVuSans-69" x="803.613281"/>
     <use xlink:href="#DejaVuSans-50" x="831.396484"/>
     <use xlink:href="#DejaVuSans-68" x="891.699219"/>
     <use xlink:href="#DejaVuSans-6f" x="955.078125"/>
     <use xlink:href="#DejaVuSans-6e" x="1016.259766"/>
     <use xlink:href="#DejaVuSans-65" x="1079.638672"/>
    </g>
    <!-- announcement as Apple's CEO -->
    <g transform="translate(308.784757 315.128875) scale(0.12 -0.12)">
     <defs>
      <path id="DejaVuSans-70" d="M 1159 525 
L 1159 -1331 
L 581 -1331 
L 581 3500 
L 1159 3500 
L 1159 2969 
Q 1341 3281 1617 3432 
Q 1894 3584 2278 3584 
Q 2916 3584 3314 3078 
Q 3713 2572 3713 1747 
Q 3713 922 3314 415 
Q 2916 -91 2278 -91 
Q 1894 -91 1617 61 
Q 1341 213 1159 525 
z
M 3116 1747 
Q 3116 2381 2855 2742 
Q 2594 3103 2138 3103 
Q 1681 3103 1420 2742 
Q 1159 2381 1159 1747 
Q 1159 1113 1420 752 
Q 1681 391 2138 391 
Q 2594 391 2855 752 
Q 3116 1113 3116 1747 
z
" transform="scale(0.015625)"/>
      <path id="DejaVuSans-6c" d="M 603 4863 
L 1178 4863 
L 1178 0 
L 603 0 
L 603 4863 
z
" transform="scale(0.015625)"/>
      <path id="DejaVuSans-45" d="M 628 4666 
L 3578 4666 
L 3578 4134 
L 1259 4134 
L 1259 2753 
L 3481 2753 
L 3481 2222 
L 1259 2222 
L 1259 531 
L 3634 531 
L 3634 0 
L 628 0 
L 628 4666 
z
" transform="scale(0.015625)"/>
      <path id="DejaVuSans-4f" d="M 2522 4238 
Q 1834 4238 1429 3725 
Q 1025 3213 1025 2328 
Q 1025 1447 1429 934 
Q 1834 422 2522 422 
Q 3209 422 3611 934 
Q 4013 1447 4013 2328 
Q 4013 3213 3611 3725 
Q 3209 4238 2522 4238 
z
M 2522 4750 
Q 3503 4750 4090 4092 
Q 4678 3434 4678 2328 
Q 4678 1225 4090 567 
Q 3503 -91 2522 -91 
Q 1538 -91 948 565 
Q 359 1222 359 2328 
Q 359 3434 948 4092 
Q 1538 4750 2522 4750 
z
" transform="scale(0.015625)"/>
     </defs>
     <use xlink:href="#DejaVuSans-61"/>
     <use xlink:href="#DejaVuSans-6e" x="61.279297"/>
     <use xlink:href="#DejaVuSans-6e" x="124.658203"/>
     <use xlink:href="#DejaVuSans-6f" x="188.037109"/>
     <use xlink:href="#DejaVuSans-75" x="249.21875"/>
     <use xlink:href="#DejaVuSans-6e" x="312.597656"/>
     <use xlink:href="#DejaVuSans-63" x="375.976562"/>
     <use xlink:href="#DejaVuSans-65" x="430.957031"/>
     <use xlink:href="#DejaVuSans-6d" x="492.480469"/>
     <use xlink:href="#DejaVuSans-65" x="589.892578"/>
     <use xlink:href="#DejaVuSans-6e" x="651.416016"/>
     <use xlink:href="#DejaVuSans-74" x="714.794922"/>
     <use xlink:href="#DejaVuSans-20" x="754.003906"/>
     <use xlink:href="#DejaVuSans-61" x="785.791016"/>
     <use xlink:href="#DejaVuSans-73" x="847.070312"/>
     <use xlink:href="#DejaVuSans-20" x="899.169922"/>
     <use xlink:href="#DejaVuSans-41" x="930.957031"/>
     <use xlink:href="#DejaVuSans-70" x="999.365234"/>
     <use xlink:href="#DejaVuSans-70" x="1062.841797"/>
     <use xlink:href="#DejaVuSans-6c" x="1126.318359"/>
     <use xlink:href="#DejaVuSans-65" x="1154.101562"/>
     <use xlink:href="#DejaVuSans-27" x="1215.625"/>
     <use xlink:href="#DejaVuSans-73" x="1243.115234"/>
     <use xlink:href="#DejaVuSans-20" x="1295.214844"/>
     <use xlink:href="#DejaVuSans-43" x="1327.001953"/>
     <use xlink:href="#DejaVuSans-45" x="1396.826172"/>
     <use xlink:href="#DejaVuSans-4f" x="1460.009766"/>
    </g>
   </g>
   <g id="text_18">
    <!-- 2012 -->
    <g transform="translate(499.513234 16.318125) scale(0.12 -0.12)">
     <use xlink:href="#DejaVuSans-32"/>
     <use xlink:href="#DejaVuSans-30" x="63.623047"/>
     <use xlink:href="#DejaVuSans-31" x="127.246094"/>
     <use xlink:href="#DejaVuSans-32" x="190.869141"/>
    </g>
    <!-- 5 -->
    <g transform="translate(510.965734 29.7555) scale(0.12 -0.12)">
     <use xlink:href="#DejaVuSans-35"/>
    </g>
    <!--  -->
    <g transform="translate(514.783234 43.192875) scale(0.12 -0.12)"/>
   </g>
   <g id="line2d_30">
    <g clip-path="url(#p051973195f)">
     <use xlink:href="#m90319ee052" x="514.783234" y="230.512875" style="fill: #ffffff; stroke: #144086"/>
    </g>
   </g>
  </g>
  <g id="axes_7">
   <g id="patch_9">
    <path d="M 568.041472 351.392875 
L 638.503821 351.392875 
L 638.503821 49.192875 
L 568.041472 49.192875 
z
" style="fill: #fdeede"/>
   </g>
   <g id="matplotlib.axis_13">
    <g id="xtick_13">
     <g id="line2d_31">
      <g>
       <use xlink:href="#m02abf337ce" x="571.244306" y="351.392875" style="fill-opacity: 0.4; stroke: #000000; stroke-opacity: 0.4; stroke-width: 0.8"/>
      </g>
     </g>
    </g>
    <g id="xtick_14">
     <g id="line2d_32">
      <g>
       <use xlink:href="#m02abf337ce" x="635.300987" y="351.392875" style="fill-opacity: 0.4; stroke: #000000; stroke-opacity: 0.4; stroke-width: 0.8"/>
      </g>
     </g>
    </g>
   </g>
   <g id="matplotlib.axis_14">
    <g id="ytick_37"/>
    <g id="ytick_38"/>
    <g id="ytick_39"/>
    <g id="ytick_40"/>
    <g id="ytick_41"/>
    <g id="ytick_42"/>
   </g>
   <g id="line2d_33">
    <path d="M 571.244306 244.721409 
L 581.920419 249.043669 
L 592.596533 233.378462 
L 603.272646 230.512875 
L 613.94876 324.097923 
L 624.624873 320.540058 
L 635.300987 318.53367 
" clip-path="url(#p462b1a7497)" style="fill: none; stroke: #e84b7e; stroke-width: 3; stroke-linecap: square"/>
   </g>
   <g id="line2d_34">
    <path d="M 571.244306 264.071232 
L 581.920419 240.021076 
L 592.596533 237.364373 
L 603.272646 230.512875 
L 613.94876 114.456889 
L 624.624873 97.817537 
L 635.300987 116.694113 
" clip-path="url(#p462b1a7497)" style="fill: none; stroke: #144086; stroke-opacity: 0.2; stroke-width: 3; stroke-linecap: square"/>
   </g>
   <g id="text_19">
    <!-- 2013 -->
    <g transform="translate(588.002646 16.318125) scale(0.12 -0.12)">
     <use xlink:href="#DejaVuSans-32"/>
     <use xlink:href="#DejaVuSans-30" x="63.623047"/>
     <use xlink:href="#DejaVuSans-31" x="127.246094"/>
     <use xlink:href="#DejaVuSans-33" x="190.869141"/>
    </g>
    <!-- 5S/5C -->
    <g transform="translate(585.617646 29.7555) scale(0.12 -0.12)">
     <defs>
      <path id="DejaVuSans-2f" d="M 1625 4666 
L 2156 4666 
L 531 -594 
L 0 -594 
L 1625 4666 
z
" transform="scale(0.015625)"/>
     </defs>
     <use xlink:href="#DejaVuSans-35"/>
     <use xlink:href="#DejaVuSans-53" x="63.623047"/>
     <use xlink:href="#DejaVuSans-2f" x="127.099609"/>
     <use xlink:href="#DejaVuSans-35" x="160.791016"/>
     <use xlink:href="#DejaVuSans-43" x="224.414062"/>
    </g>
    <!--  -->
    <g transform="translate(603.272646 43.192875) scale(0.12 -0.12)"/>
   </g>
   <g id="line2d_35">
    <g clip-path="url(#p462b1a7497)">
     <use xlink:href="#m90319ee052" x="603.272646" y="230.512875" style="fill: #ffffff; stroke: #144086"/>
    </g>
   </g>
  </g>
  <g id="axes_8">
   <g id="patch_10">
    <path d="M 656.530884 351.392875 
L 726.993233 351.392875 
L 726.993233 49.192875 
L 656.530884 49.192875 
z
" style="fill: #fdeede"/>
   </g>
   <g id="matplotlib.axis_15">
    <g id="xtick_15">
     <g id="line2d_36">
      <g>
       <use xlink:href="#m02abf337ce" x="659.733718" y="351.392875" style="fill-opacity: 0.4; stroke: #000000; stroke-opacity: 0.4; stroke-width: 0.8"/>
      </g>
     </g>
    </g>
    <g id="xtick_16">
     <g id="line2d_37">
      <g>
       <use xlink:href="#m02abf337ce" x="723.790399" y="351.392875" style="fill-opacity: 0.4; stroke: #000000; stroke-opacity: 0.4; stroke-width: 0.8"/>
      </g>
     </g>
    </g>
   </g>
   <g id="matplotlib.axis_16">
    <g id="ytick_43"/>
    <g id="ytick_44"/>
    <g id="ytick_45"/>
    <g id="ytick_46"/>
    <g id="ytick_47"/>
    <g id="ytick_48"/>
   </g>
   <g id="line2d_38">
    <path d="M 659.733718 233.318931 
L 670.409831 233.928943 
L 681.085945 227.828822 
L 691.762058 230.512875 
L 702.438172 243.567134 
L 713.114285 214.286553 
L 723.790399 204.526359 
" clip-path="url(#p83df7b01d9)" style="fill: none; stroke: #144086; stroke-width: 3; stroke-linecap: square"/>
   </g>
   <g id="line2d_39">
    <path d="M 659.733718 264.071232 
L 670.409831 240.021076 
L 681.085945 237.364373 
L 691.762058 230.512875 
L 702.438172 114.456889 
L 713.114285 97.817537 
L 723.790399 116.694113 
" clip-path="url(#p83df7b01d9)" style="fill: none; stroke: #144086; stroke-opacity: 0.2; stroke-width: 3; stroke-linecap: square"/>
   </g>
   <g id="text_20">
    <!-- 2014 -->
    <g transform="translate(676.492058 16.318125) scale(0.12 -0.12)">
     <use xlink:href="#DejaVuSans-32"/>
     <use xlink:href="#DejaVuSans-30" x="63.623047"/>
     <use xlink:href="#DejaVuSans-31" x="127.246094"/>
     <use xlink:href="#DejaVuSans-34" x="190.869141"/>
    </g>
    <!-- 6/6 Plus -->
    <g transform="translate(667.986121 29.7555) scale(0.12 -0.12)">
     <defs>
      <path id="DejaVuSans-36" d="M 2113 2584 
Q 1688 2584 1439 2293 
Q 1191 2003 1191 1497 
Q 1191 994 1439 701 
Q 1688 409 2113 409 
Q 2538 409 2786 701 
Q 3034 994 3034 1497 
Q 3034 2003 2786 2293 
Q 2538 2584 2113 2584 
z
M 3366 4563 
L 3366 3988 
Q 3128 4100 2886 4159 
Q 2644 4219 2406 4219 
Q 1781 4219 1451 3797 
Q 1122 3375 1075 2522 
Q 1259 2794 1537 2939 
Q 1816 3084 2150 3084 
Q 2853 3084 3261 2657 
Q 3669 2231 3669 1497 
Q 3669 778 3244 343 
Q 2819 -91 2113 -91 
Q 1303 -91 875 529 
Q 447 1150 447 2328 
Q 447 3434 972 4092 
Q 1497 4750 2381 4750 
Q 2619 4750 2861 4703 
Q 3103 4656 3366 4563 
z
" transform="scale(0.015625)"/>
     </defs>
     <use xlink:href="#DejaVuSans-36"/>
     <use xlink:href="#DejaVuSans-2f" x="63.623047"/>
     <use xlink:href="#DejaVuSans-36" x="97.314453"/>
     <use xlink:href="#DejaVuSans-20" x="160.9375"/>
     <use xlink:href="#DejaVuSans-50" x="192.724609"/>
     <use xlink:href="#DejaVuSans-6c" x="253.027344"/>
     <use xlink:href="#DejaVuSans-75" x="280.810547"/>
     <use xlink:href="#DejaVuSans-73" x="344.189453"/>
    </g>
    <!--  -->
    <g transform="translate(691.762058 43.192875) scale(0.12 -0.12)"/>
   </g>
   <g id="line2d_40">
    <g clip-path="url(#p83df7b01d9)">
     <use xlink:href="#m90319ee052" x="691.762058" y="230.512875" style="fill: #ffffff; stroke: #144086"/>
    </g>
   </g>
  </g>
  <g id="axes_9">
   <g id="patch_11">
    <path d="M 833.509708 351.392875 
L 903.972057 351.392875 
L 903.972057 49.192875 
L 833.509708 49.192875 
z
" style="fill: #fdeede"/>
   </g>
   <g id="matplotlib.axis_17">
    <g id="xtick_17">
     <g id="line2d_41">
      <g>
       <use xlink:href="#m02abf337ce" x="836.712542" y="351.392875" style="fill-opacity: 0.4; stroke: #000000; stroke-opacity: 0.4; stroke-width: 0.8"/>
      </g>
     </g>
    </g>
    <g id="xtick_18">
     <g id="line2d_42">
      <g>
       <use xlink:href="#m02abf337ce" x="900.769223" y="351.392875" style="fill-opacity: 0.4; stroke: #000000; stroke-opacity: 0.4; stroke-width: 0.8"/>
      </g>
     </g>
    </g>
   </g>
   <g id="matplotlib.axis_18">
    <g id="ytick_49"/>
    <g id="ytick_50"/>
    <g id="ytick_51"/>
    <g id="ytick_52"/>
    <g id="ytick_53"/>
    <g id="ytick_54"/>
   </g>
   <g id="line2d_43">
    <path d="M 836.712542 249.458178 
L 847.388655 231.970206 
L 858.064769 229.728158 
L 868.740882 230.512875 
L 879.416996 237.014813 
L 890.093109 266.273535 
L 900.769223 288.58191 
" clip-path="url(#p646d66a4fc)" style="fill: none; stroke: #144086; stroke-width: 3; stroke-linecap: square"/>
   </g>
   <g id="line2d_44">
    <path d="M 836.712542 264.071232 
L 847.388655 240.021076 
L 858.064769 237.364373 
L 868.740882 230.512875 
L 879.416996 114.456889 
L 890.093109 97.817537 
L 900.769223 116.694113 
" clip-path="url(#p646d66a4fc)" style="fill: none; stroke: #144086; stroke-opacity: 0.2; stroke-width: 3; stroke-linecap: square"/>
   </g>
   <g id="text_21">
    <!-- 2016 -->
    <g transform="translate(853.470882 16.318125) scale(0.12 -0.12)">
     <use xlink:href="#DejaVuSans-32"/>
     <use xlink:href="#DejaVuSans-30" x="63.623047"/>
     <use xlink:href="#DejaVuSans-31" x="127.246094"/>
     <use xlink:href="#DejaVuSans-36" x="190.869141"/>
    </g>
    <!-- 7/7 Plus -->
    <g transform="translate(844.964945 29.7555) scale(0.12 -0.12)">
     <use xlink:href="#DejaVuSans-37"/>
     <use xlink:href="#DejaVuSans-2f" x="63.623047"/>
     <use xlink:href="#DejaVuSans-37" x="97.314453"/>
     <use xlink:href="#DejaVuSans-20" x="160.9375"/>
     <use xlink:href="#DejaVuSans-50" x="192.724609"/>
     <use xlink:href="#DejaVuSans-6c" x="253.027344"/>
     <use xlink:href="#DejaVuSans-75" x="280.810547"/>
     <use xlink:href="#DejaVuSans-73" x="344.189453"/>
    </g>
    <!--  -->
    <g transform="translate(868.740882 43.192875) scale(0.12 -0.12)"/>
   </g>
   <g id="line2d_45">
    <g clip-path="url(#p646d66a4fc)">
     <use xlink:href="#m90319ee052" x="868.740882" y="230.512875" style="fill: #ffffff; stroke: #144086"/>
    </g>
   </g>
  </g>
  <g id="axes_10">
   <g id="patch_12">
    <path d="M 921.99912 351.392875 
L 992.461469 351.392875 
L 992.461469 49.192875 
L 921.99912 49.192875 
z
" style="fill: #fdeede"/>
   </g>
   <g id="matplotlib.axis_19">
    <g id="xtick_19">
     <g id="line2d_46">
      <g>
       <use xlink:href="#m02abf337ce" x="925.201954" y="351.392875" style="fill-opacity: 0.4; stroke: #000000; stroke-opacity: 0.4; stroke-width: 0.8"/>
      </g>
     </g>
    </g>
    <g id="xtick_20">
     <g id="line2d_47">
      <g>
       <use xlink:href="#m02abf337ce" x="989.258634" y="351.392875" style="fill-opacity: 0.4; stroke: #000000; stroke-opacity: 0.4; stroke-width: 0.8"/>
      </g>
     </g>
    </g>
   </g>
   <g id="matplotlib.axis_20">
    <g id="ytick_55">
     <g id="text_22">
      <!-- 90 -->
      <g transform="translate(999.461469 355.951938) scale(0.12 -0.12)">
       <use xlink:href="#DejaVuSans-39"/>
       <use xlink:href="#DejaVuSans-30" x="63.623047"/>
      </g>
     </g>
    </g>
    <g id="ytick_56">
     <g id="text_23">
      <!-- 95 -->
      <g transform="translate(999.461469 295.511938) scale(0.12 -0.12)">
       <use xlink:href="#DejaVuSans-39"/>
       <use xlink:href="#DejaVuSans-35" x="63.623047"/>
      </g>
     </g>
    </g>
    <g id="ytick_57">
     <g id="text_24">
      <!-- 100 -->
      <g transform="translate(999.461469 235.071938) scale(0.12 -0.12)">
       <use xlink:href="#DejaVuSans-31"/>
       <use xlink:href="#DejaVuSans-30" x="63.623047"/>
       <use xlink:href="#DejaVuSans-30" x="127.246094"/>
      </g>
     </g>
    </g>
    <g id="ytick_58">
     <g id="text_25">
      <!-- 105 -->
      <g transform="translate(999.461469 174.631938) scale(0.12 -0.12)">
       <use xlink:href="#DejaVuSans-31"/>
       <use xlink:href="#DejaVuSans-30" x="63.623047"/>
       <use xlink:href="#DejaVuSans-35" x="127.246094"/>
      </g>
     </g>
    </g>
    <g id="ytick_59">
     <g id="text_26">
      <!-- 110 -->
      <g transform="translate(999.461469 114.191938) scale(0.12 -0.12)">
       <use xlink:href="#DejaVuSans-31"/>
       <use xlink:href="#DejaVuSans-31" x="63.623047"/>
       <use xlink:href="#DejaVuSans-30" x="127.246094"/>
      </g>
     </g>
    </g>
    <g id="ytick_60">
     <g id="text_27">
      <!-- 115 -->
      <g transform="translate(999.461469 53.751938) scale(0.12 -0.12)">
       <use xlink:href="#DejaVuSans-31"/>
       <use xlink:href="#DejaVuSans-31" x="63.623047"/>
       <use xlink:href="#DejaVuSans-35" x="127.246094"/>
      </g>
     </g>
    </g>
   </g>
   <g id="line2d_48">
    <path d="M 925.201954 234.378418 
L 935.878067 243.521915 
L 946.554181 246.19806 
L 957.230294 230.512875 
L 967.906408 250.881315 
L 978.582521 257.423004 
L 989.258634 261.288547 
" clip-path="url(#pf56ae39d0c)" style="fill: none; stroke: #144086; stroke-width: 3; stroke-linecap: square"/>
   </g>
   <g id="line2d_49">
    <path d="M 925.201954 264.071232 
L 935.878067 240.021076 
L 946.554181 237.364373 
L 957.230294 230.512875 
L 967.906408 114.456889 
L 978.582521 97.817537 
L 989.258634 116.694113 
" clip-path="url(#pf56ae39d0c)" style="fill: none; stroke: #144086; stroke-opacity: 0.2; stroke-width: 3; stroke-linecap: square"/>
   </g>
   <g id="text_28">
    <!-- 2017 -->
    <g transform="translate(941.960294 16.318125) scale(0.12 -0.12)">
     <use xlink:href="#DejaVuSans-32"/>
     <use xlink:href="#DejaVuSans-30" x="63.623047"/>
     <use xlink:href="#DejaVuSans-31" x="127.246094"/>
     <use xlink:href="#DejaVuSans-37" x="190.869141"/>
    </g>
    <!-- 8/8 Plus/X -->
    <g transform="translate(927.323107 29.7555) scale(0.12 -0.12)">
     <defs>
      <path id="DejaVuSans-58" d="M 403 4666 
L 1081 4666 
L 2241 2931 
L 3406 4666 
L 4084 4666 
L 2584 2425 
L 4184 0 
L 3506 0 
L 2194 1984 
L 872 0 
L 191 0 
L 1856 2491 
L 403 4666 
z
" transform="scale(0.015625)"/>
     </defs>
     <use xlink:href="#DejaVuSans-38"/>
     <use xlink:href="#DejaVuSans-2f" x="63.623047"/>
     <use xlink:href="#DejaVuSans-38" x="97.314453"/>
     <use xlink:href="#DejaVuSans-20" x="160.9375"/>
     <use xlink:href="#DejaVuSans-50" x="192.724609"/>
     <use xlink:href="#DejaVuSans-6c" x="253.027344"/>
     <use xlink:href="#DejaVuSans-75" x="280.810547"/>
     <use xlink:href="#DejaVuSans-73" x="344.189453"/>
     <use xlink:href="#DejaVuSans-2f" x="396.289062"/>
     <use xlink:href="#DejaVuSans-58" x="429.980469"/>
    </g>
    <!--  -->
    <g transform="translate(957.230294 43.192875) scale(0.12 -0.12)"/>
   </g>
   <g id="line2d_50">
    <g clip-path="url(#pf56ae39d0c)">
     <use xlink:href="#m90319ee052" x="957.230294" y="230.512875" style="fill: #ffffff; stroke: #144086"/>
    </g>
   </g>
  </g>
  <g id="axes_11">
   <g id="patch_13">
    <path d="M 745.020296 351.392875 
L 815.482645 351.392875 
L 815.482645 49.192875 
L 745.020296 49.192875 
z
" style="fill: #fdeede"/>
   </g>
   <g id="matplotlib.axis_21">
    <g id="xtick_21">
     <g id="line2d_51">
      <g>
       <use xlink:href="#m02abf337ce" x="748.22313" y="351.392875" style="fill-opacity: 0.4; stroke: #000000; stroke-opacity: 0.4; stroke-width: 0.8"/>
      </g>
     </g>
    </g>
    <g id="xtick_22">
     <g id="line2d_52">
      <g>
       <use xlink:href="#m02abf337ce" x="812.279811" y="351.392875" style="fill-opacity: 0.4; stroke: #000000; stroke-opacity: 0.4; stroke-width: 0.8"/>
      </g>
     </g>
    </g>
   </g>
   <g id="matplotlib.axis_22">
    <g id="ytick_61"/>
    <g id="ytick_62"/>
    <g id="ytick_63"/>
    <g id="ytick_64"/>
    <g id="ytick_65"/>
    <g id="ytick_66"/>
   </g>
   <g id="line2d_53">
    <path d="M 748.22313 244.007741 
L 758.899243 281.410836 
L 769.575357 252.93348 
L 780.25147 230.512875 
L 790.927584 267.597193 
L 801.603697 251.445857 
L 812.279811 200.547896 
" clip-path="url(#p4e4b6669dc)" style="fill: none; stroke: #e84b7e; stroke-width: 3; stroke-linecap: square"/>
   </g>
   <g id="line2d_54">
    <path d="M 748.22313 264.071232 
L 758.899243 240.021076 
L 769.575357 237.364373 
L 780.25147 230.512875 
L 790.927584 114.456889 
L 801.603697 97.817537 
L 812.279811 116.694113 
" clip-path="url(#p4e4b6669dc)" style="fill: none; stroke: #144086; stroke-opacity: 0.2; stroke-width: 3; stroke-linecap: square"/>
   </g>
   <g id="text_29">
    <!-- Hardware upgrade 'S' models -->
    <g style="fill: #e84b7e" transform="translate(652.138108 313.68575) scale(0.12 -0.12)">
     <defs>
      <path id="DejaVuSans-Bold-48" d="M 588 4666 
L 1791 4666 
L 1791 2888 
L 3566 2888 
L 3566 4666 
L 4769 4666 
L 4769 0 
L 3566 0 
L 3566 1978 
L 1791 1978 
L 1791 0 
L 588 0 
L 588 4666 
z
" transform="scale(0.015625)"/>
      <path id="DejaVuSans-Bold-61" d="M 2106 1575 
Q 1756 1575 1579 1456 
Q 1403 1338 1403 1106 
Q 1403 894 1545 773 
Q 1688 653 1941 653 
Q 2256 653 2472 879 
Q 2688 1106 2688 1447 
L 2688 1575 
L 2106 1575 
z
M 3816 1997 
L 3816 0 
L 2688 0 
L 2688 519 
Q 2463 200 2181 54 
Q 1900 -91 1497 -91 
Q 953 -91 614 226 
Q 275 544 275 1050 
Q 275 1666 698 1953 
Q 1122 2241 2028 2241 
L 2688 2241 
L 2688 2328 
Q 2688 2594 2478 2717 
Q 2269 2841 1825 2841 
Q 1466 2841 1156 2769 
Q 847 2697 581 2553 
L 581 3406 
Q 941 3494 1303 3539 
Q 1666 3584 2028 3584 
Q 2975 3584 3395 3211 
Q 3816 2838 3816 1997 
z
" transform="scale(0.015625)"/>
      <path id="DejaVuSans-Bold-72" d="M 3138 2547 
Q 2991 2616 2845 2648 
Q 2700 2681 2553 2681 
Q 2122 2681 1889 2404 
Q 1656 2128 1656 1613 
L 1656 0 
L 538 0 
L 538 3500 
L 1656 3500 
L 1656 2925 
Q 1872 3269 2151 3426 
Q 2431 3584 2822 3584 
Q 2878 3584 2943 3579 
Q 3009 3575 3134 3559 
L 3138 2547 
z
" transform="scale(0.015625)"/>
      <path id="DejaVuSans-Bold-64" d="M 2919 2988 
L 2919 4863 
L 4044 4863 
L 4044 0 
L 2919 0 
L 2919 506 
Q 2688 197 2409 53 
Q 2131 -91 1766 -91 
Q 1119 -91 703 423 
Q 288 938 288 1747 
Q 288 2556 703 3070 
Q 1119 3584 1766 3584 
Q 2128 3584 2408 3439 
Q 2688 3294 2919 2988 
z
M 2181 722 
Q 2541 722 2730 984 
Q 2919 1247 2919 1747 
Q 2919 2247 2730 2509 
Q 2541 2772 2181 2772 
Q 1825 2772 1636 2509 
Q 1447 2247 1447 1747 
Q 1447 1247 1636 984 
Q 1825 722 2181 722 
z
" transform="scale(0.015625)"/>
      <path id="DejaVuSans-Bold-77" d="M 225 3500 
L 1313 3500 
L 1900 1088 
L 2491 3500 
L 3425 3500 
L 4013 1113 
L 4603 3500 
L 5691 3500 
L 4769 0 
L 3547 0 
L 2956 2406 
L 2369 0 
L 1147 0 
L 225 3500 
z
" transform="scale(0.015625)"/>
      <path id="DejaVuSans-Bold-65" d="M 4031 1759 
L 4031 1441 
L 1416 1441 
Q 1456 1047 1700 850 
Q 1944 653 2381 653 
Q 2734 653 3104 758 
Q 3475 863 3866 1075 
L 3866 213 
Q 3469 63 3072 -14 
Q 2675 -91 2278 -91 
Q 1328 -91 801 392 
Q 275 875 275 1747 
Q 275 2603 792 3093 
Q 1309 3584 2216 3584 
Q 3041 3584 3536 3087 
Q 4031 2591 4031 1759 
z
M 2881 2131 
Q 2881 2450 2695 2645 
Q 2509 2841 2209 2841 
Q 1884 2841 1681 2658 
Q 1478 2475 1428 2131 
L 2881 2131 
z
" transform="scale(0.015625)"/>
      <path id="DejaVuSans-Bold-20" transform="scale(0.015625)"/>
      <path id="DejaVuSans-Bold-75" d="M 500 1363 
L 500 3500 
L 1625 3500 
L 1625 3150 
Q 1625 2866 1622 2436 
Q 1619 2006 1619 1863 
Q 1619 1441 1641 1255 
Q 1663 1069 1716 984 
Q 1784 875 1895 815 
Q 2006 756 2150 756 
Q 2500 756 2700 1025 
Q 2900 1294 2900 1772 
L 2900 3500 
L 4019 3500 
L 4019 0 
L 2900 0 
L 2900 506 
Q 2647 200 2364 54 
Q 2081 -91 1741 -91 
Q 1134 -91 817 281 
Q 500 653 500 1363 
z
" transform="scale(0.015625)"/>
      <path id="DejaVuSans-Bold-70" d="M 1656 506 
L 1656 -1331 
L 538 -1331 
L 538 3500 
L 1656 3500 
L 1656 2988 
Q 1888 3294 2169 3439 
Q 2450 3584 2816 3584 
Q 3463 3584 3878 3070 
Q 4294 2556 4294 1747 
Q 4294 938 3878 423 
Q 3463 -91 2816 -91 
Q 2450 -91 2169 54 
Q 1888 200 1656 506 
z
M 2400 2772 
Q 2041 2772 1848 2508 
Q 1656 2244 1656 1747 
Q 1656 1250 1848 986 
Q 2041 722 2400 722 
Q 2759 722 2948 984 
Q 3138 1247 3138 1747 
Q 3138 2247 2948 2509 
Q 2759 2772 2400 2772 
z
" transform="scale(0.015625)"/>
      <path id="DejaVuSans-Bold-67" d="M 2919 594 
Q 2688 288 2409 144 
Q 2131 0 1766 0 
Q 1125 0 706 504 
Q 288 1009 288 1791 
Q 288 2575 706 3076 
Q 1125 3578 1766 3578 
Q 2131 3578 2409 3434 
Q 2688 3291 2919 2981 
L 2919 3500 
L 4044 3500 
L 4044 353 
Q 4044 -491 3511 -936 
Q 2978 -1381 1966 -1381 
Q 1638 -1381 1331 -1331 
Q 1025 -1281 716 -1178 
L 716 -306 
Q 1009 -475 1290 -558 
Q 1572 -641 1856 -641 
Q 2406 -641 2662 -400 
Q 2919 -159 2919 353 
L 2919 594 
z
M 2181 2772 
Q 1834 2772 1640 2515 
Q 1447 2259 1447 1791 
Q 1447 1309 1634 1061 
Q 1822 813 2181 813 
Q 2531 813 2725 1069 
Q 2919 1325 2919 1791 
Q 2919 2259 2725 2515 
Q 2531 2772 2181 2772 
z
" transform="scale(0.015625)"/>
      <path id="DejaVuSans-Bold-27" d="M 1350 4666 
L 1350 2931 
L 609 2931 
L 609 4666 
L 1350 4666 
z
" transform="scale(0.015625)"/>
      <path id="DejaVuSans-Bold-53" d="M 3834 4519 
L 3834 3531 
Q 3450 3703 3084 3790 
Q 2719 3878 2394 3878 
Q 1963 3878 1756 3759 
Q 1550 3641 1550 3391 
Q 1550 3203 1689 3098 
Q 1828 2994 2194 2919 
L 2706 2816 
Q 3484 2659 3812 2340 
Q 4141 2022 4141 1434 
Q 4141 663 3683 286 
Q 3225 -91 2284 -91 
Q 1841 -91 1394 -6 
Q 947 78 500 244 
L 500 1259 
Q 947 1022 1364 901 
Q 1781 781 2169 781 
Q 2563 781 2772 912 
Q 2981 1044 2981 1288 
Q 2981 1506 2839 1625 
Q 2697 1744 2272 1838 
L 1806 1941 
Q 1106 2091 782 2419 
Q 459 2747 459 3303 
Q 459 4000 909 4375 
Q 1359 4750 2203 4750 
Q 2588 4750 2994 4692 
Q 3400 4634 3834 4519 
z
" transform="scale(0.015625)"/>
      <path id="DejaVuSans-Bold-6d" d="M 3781 2919 
Q 3994 3244 4286 3414 
Q 4578 3584 4928 3584 
Q 5531 3584 5847 3212 
Q 6163 2841 6163 2131 
L 6163 0 
L 5038 0 
L 5038 1825 
Q 5041 1866 5042 1909 
Q 5044 1953 5044 2034 
Q 5044 2406 4934 2573 
Q 4825 2741 4581 2741 
Q 4263 2741 4089 2478 
Q 3916 2216 3909 1719 
L 3909 0 
L 2784 0 
L 2784 1825 
Q 2784 2406 2684 2573 
Q 2584 2741 2328 2741 
Q 2006 2741 1831 2477 
Q 1656 2213 1656 1722 
L 1656 0 
L 531 0 
L 531 3500 
L 1656 3500 
L 1656 2988 
Q 1863 3284 2130 3434 
Q 2397 3584 2719 3584 
Q 3081 3584 3359 3409 
Q 3638 3234 3781 2919 
z
" transform="scale(0.015625)"/>
      <path id="DejaVuSans-Bold-6f" d="M 2203 2784 
Q 1831 2784 1636 2517 
Q 1441 2250 1441 1747 
Q 1441 1244 1636 976 
Q 1831 709 2203 709 
Q 2569 709 2762 976 
Q 2956 1244 2956 1747 
Q 2956 2250 2762 2517 
Q 2569 2784 2203 2784 
z
M 2203 3584 
Q 3106 3584 3614 3096 
Q 4122 2609 4122 1747 
Q 4122 884 3614 396 
Q 3106 -91 2203 -91 
Q 1297 -91 786 396 
Q 275 884 275 1747 
Q 275 2609 786 3096 
Q 1297 3584 2203 3584 
z
" transform="scale(0.015625)"/>
      <path id="DejaVuSans-Bold-6c" d="M 538 4863 
L 1656 4863 
L 1656 0 
L 538 0 
L 538 4863 
z
" transform="scale(0.015625)"/>
      <path id="DejaVuSans-Bold-73" d="M 3272 3391 
L 3272 2541 
Q 2913 2691 2578 2766 
Q 2244 2841 1947 2841 
Q 1628 2841 1473 2761 
Q 1319 2681 1319 2516 
Q 1319 2381 1436 2309 
Q 1553 2238 1856 2203 
L 2053 2175 
Q 2913 2066 3209 1816 
Q 3506 1566 3506 1031 
Q 3506 472 3093 190 
Q 2681 -91 1863 -91 
Q 1516 -91 1145 -36 
Q 775 19 384 128 
L 384 978 
Q 719 816 1070 734 
Q 1422 653 1784 653 
Q 2113 653 2278 743 
Q 2444 834 2444 1013 
Q 2444 1163 2330 1236 
Q 2216 1309 1875 1350 
L 1678 1375 
Q 931 1469 631 1722 
Q 331 1975 331 2491 
Q 331 3047 712 3315 
Q 1094 3584 1881 3584 
Q 2191 3584 2531 3537 
Q 2872 3491 3272 3391 
z
" transform="scale(0.015625)"/>
     </defs>
     <use xlink:href="#DejaVuSans-Bold-48"/>
     <use xlink:href="#DejaVuSans-Bold-61" x="83.691406"/>
     <use xlink:href="#DejaVuSans-Bold-72" x="151.171875"/>
     <use xlink:href="#DejaVuSans-Bold-64" x="200.488281"/>
     <use xlink:href="#DejaVuSans-Bold-77" x="272.070312"/>
     <use xlink:href="#DejaVuSans-Bold-61" x="364.453125"/>
     <use xlink:href="#DejaVuSans-Bold-72" x="431.933594"/>
     <use xlink:href="#DejaVuSans-Bold-65" x="481.25"/>
     <use xlink:href="#DejaVuSans-Bold-20" x="549.072266"/>
     <use xlink:href="#DejaVuSans-Bold-75" x="583.886719"/>
     <use xlink:href="#DejaVuSans-Bold-70" x="655.078125"/>
     <use xlink:href="#DejaVuSans-Bold-67" x="726.660156"/>
     <use xlink:href="#DejaVuSans-Bold-72" x="798.242188"/>
     <use xlink:href="#DejaVuSans-Bold-61" x="847.558594"/>
     <use xlink:href="#DejaVuSans-Bold-64" x="915.039062"/>
     <use xlink:href="#DejaVuSans-Bold-65" x="986.621094"/>
     <use xlink:href="#DejaVuSans-Bold-20" x="1054.443359"/>
     <use xlink:href="#DejaVuSans-Bold-27" x="1089.257812"/>
     <use xlink:href="#DejaVuSans-Bold-53" x="1119.873047"/>
     <use xlink:href="#DejaVuSans-Bold-27" x="1191.894531"/>
     <use xlink:href="#DejaVuSans-Bold-20" x="1222.509766"/>
     <use xlink:href="#DejaVuSans-Bold-6d" x="1257.324219"/>
     <use xlink:href="#DejaVuSans-Bold-6f" x="1361.523438"/>
     <use xlink:href="#DejaVuSans-Bold-64" x="1430.224609"/>
     <use xlink:href="#DejaVuSans-Bold-65" x="1501.806641"/>
     <use xlink:href="#DejaVuSans-Bold-6c" x="1569.628906"/>
     <use xlink:href="#DejaVuSans-Bold-73" x="1603.90625"/>
    </g>
    <!-- underwhelm the market -->
    <g style="fill: #e84b7e" transform="translate(652.138108 327.216875) scale(0.12 -0.12)">
     <defs>
      <path id="DejaVuSans-Bold-6e" d="M 4056 2131 
L 4056 0 
L 2931 0 
L 2931 347 
L 2931 1631 
Q 2931 2084 2911 2256 
Q 2891 2428 2841 2509 
Q 2775 2619 2662 2680 
Q 2550 2741 2406 2741 
Q 2056 2741 1856 2470 
Q 1656 2200 1656 1722 
L 1656 0 
L 538 0 
L 538 3500 
L 1656 3500 
L 1656 2988 
Q 1909 3294 2193 3439 
Q 2478 3584 2822 3584 
Q 3428 3584 3742 3212 
Q 4056 2841 4056 2131 
z
" transform="scale(0.015625)"/>
      <path id="DejaVuSans-Bold-68" d="M 4056 2131 
L 4056 0 
L 2931 0 
L 2931 347 
L 2931 1625 
Q 2931 2084 2911 2256 
Q 2891 2428 2841 2509 
Q 2775 2619 2662 2680 
Q 2550 2741 2406 2741 
Q 2056 2741 1856 2470 
Q 1656 2200 1656 1722 
L 1656 0 
L 538 0 
L 538 4863 
L 1656 4863 
L 1656 2988 
Q 1909 3294 2193 3439 
Q 2478 3584 2822 3584 
Q 3428 3584 3742 3212 
Q 4056 2841 4056 2131 
z
" transform="scale(0.015625)"/>
      <path id="DejaVuSans-Bold-74" d="M 1759 4494 
L 1759 3500 
L 2913 3500 
L 2913 2700 
L 1759 2700 
L 1759 1216 
Q 1759 972 1856 886 
Q 1953 800 2241 800 
L 2816 800 
L 2816 0 
L 1856 0 
Q 1194 0 917 276 
Q 641 553 641 1216 
L 641 2700 
L 84 2700 
L 84 3500 
L 641 3500 
L 641 4494 
L 1759 4494 
z
" transform="scale(0.015625)"/>
      <path id="DejaVuSans-Bold-6b" d="M 538 4863 
L 1656 4863 
L 1656 2216 
L 2944 3500 
L 4244 3500 
L 2534 1894 
L 4378 0 
L 3022 0 
L 1656 1459 
L 1656 0 
L 538 0 
L 538 4863 
z
" transform="scale(0.015625)"/>
     </defs>
     <use xlink:href="#DejaVuSans-Bold-75"/>
     <use xlink:href="#DejaVuSans-Bold-6e" x="71.191406"/>
     <use xlink:href="#DejaVuSans-Bold-64" x="142.382812"/>
     <use xlink:href="#DejaVuSans-Bold-65" x="213.964844"/>
     <use xlink:href="#DejaVuSans-Bold-72" x="281.787109"/>
     <use xlink:href="#DejaVuSans-Bold-77" x="331.103516"/>
     <use xlink:href="#DejaVuSans-Bold-68" x="423.486328"/>
     <use xlink:href="#DejaVuSans-Bold-65" x="494.677734"/>
     <use xlink:href="#DejaVuSans-Bold-6c" x="562.5"/>
     <use xlink:href="#DejaVuSans-Bold-6d" x="596.777344"/>
     <use xlink:href="#DejaVuSans-Bold-20" x="700.976562"/>
     <use xlink:href="#DejaVuSans-Bold-74" x="735.791016"/>
     <use xlink:href="#DejaVuSans-Bold-68" x="783.59375"/>
     <use xlink:href="#DejaVuSans-Bold-65" x="854.785156"/>
     <use xlink:href="#DejaVuSans-Bold-20" x="922.607422"/>
     <use xlink:href="#DejaVuSans-Bold-6d" x="957.421875"/>
     <use xlink:href="#DejaVuSans-Bold-61" x="1061.621094"/>
     <use xlink:href="#DejaVuSans-Bold-72" x="1129.101562"/>
     <use xlink:href="#DejaVuSans-Bold-6b" x="1178.417969"/>
     <use xlink:href="#DejaVuSans-Bold-65" x="1242.296875"/>
     <use xlink:href="#DejaVuSans-Bold-74" x="1310.119141"/>
    </g>
   </g>
   <g id="text_30">
    <!-- 2015 -->
    <g transform="translate(764.98147 16.318125) scale(0.12 -0.12)">
     <use xlink:href="#DejaVuSans-32"/>
     <use xlink:href="#DejaVuSans-30" x="63.623047"/>
     <use xlink:href="#DejaVuSans-31" x="127.246094"/>
     <use xlink:href="#DejaVuSans-35" x="190.869141"/>
    </g>
    <!-- 6S/6S Plus -->
    <g transform="translate(748.857408 29.7555) scale(0.12 -0.12)">
     <use xlink:href="#DejaVuSans-36"/>
     <use xlink:href="#DejaVuSans-53" x="63.623047"/>
     <use xlink:href="#DejaVuSans-2f" x="127.099609"/>
     <use xlink:href="#DejaVuSans-36" x="160.791016"/>
     <use xlink:href="#DejaVuSans-53" x="224.414062"/>
     <use xlink:href="#DejaVuSans-20" x="287.890625"/>
     <use xlink:href="#DejaVuSans-50" x="319.677734"/>
     <use xlink:href="#DejaVuSans-6c" x="379.980469"/>
     <use xlink:href="#DejaVuSans-75" x="407.763672"/>
     <use xlink:href="#DejaVuSans-73" x="471.142578"/>
    </g>
    <!--  -->
    <g transform="translate(780.25147 43.192875) scale(0.12 -0.12)"/>
   </g>
   <g id="line2d_55">
    <g clip-path="url(#p4e4b6669dc)">
     <use xlink:href="#m90319ee052" x="780.25147" y="230.512875" style="fill: #ffffff; stroke: #144086"/>
    </g>
   </g>
  </g>
  <g id="line2d_56">
   <path d="M 36.675 351.392875 
L 989.235 351.392875 
" style="fill: none; stroke: #000000; stroke-opacity: 0.4; stroke-width: 0.5; stroke-linecap: square"/>
  </g>
  <g id="line2d_57">
   <path d="M 36.675 290.952875 
L 989.235 290.952875 
" style="fill: none; stroke: #000000; stroke-opacity: 0.4; stroke-width: 0.5; stroke-linecap: square"/>
  </g>
  <g id="line2d_58">
   <path d="M 36.675 230.512875 
L 989.235 230.512875 
" style="fill: none; stroke: #000000; stroke-opacity: 0.4; stroke-width: 1.5; stroke-linecap: square"/>
  </g>
  <g id="line2d_59">
   <path d="M 36.675 170.072875 
L 989.235 170.072875 
" style="fill: none; stroke: #000000; stroke-opacity: 0.4; stroke-width: 0.5; stroke-linecap: square"/>
  </g>
  <g id="line2d_60">
   <path d="M 36.675 109.632875 
L 989.235 109.632875 
" style="fill: none; stroke: #000000; stroke-opacity: 0.4; stroke-width: 0.5; stroke-linecap: square"/>
  </g>
  <g id="line2d_61">
   <path d="M 36.675 49.192875 
L 989.235 49.192875 
" style="fill: none; stroke: #000000; stroke-opacity: 0.4; stroke-width: 0.5; stroke-linecap: square"/>
  </g>
  <g id="line2d_62">
   <path d="M 72.336175 351.392875 
L 72.336175 333.260875 
" style="fill: none; stroke: #000000; stroke-opacity: 0.5; stroke-width: 1.5; stroke-linecap: square"/>
  </g>
  <g id="line2d_63">
   <path d="M 72.336175 315.128875 
L 72.336175 230.512875 
" style="fill: none; stroke: #000000; stroke-opacity: 0.5; stroke-width: 1.5; stroke-linecap: square"/>
  </g>
 </g>
 <defs>
  <clipPath id="p2c31e9c813">
   <rect x="37.105" y="49.192875" width="70.462349" height="302.2"/>
  </clipPath>
  <clipPath id="paa18fd5b55">
   <rect x="125.594412" y="49.192875" width="70.462349" height="302.2"/>
  </clipPath>
  <clipPath id="pb940052ee3">
   <rect x="214.083824" y="49.192875" width="70.462349" height="302.2"/>
  </clipPath>
  <clipPath id="ped0fa540d2">
   <rect x="302.573236" y="49.192875" width="70.462349" height="302.2"/>
  </clipPath>
  <clipPath id="p325d68c6c7">
   <rect x="391.062648" y="49.192875" width="70.462349" height="302.2"/>
  </clipPath>
  <clipPath id="p051973195f">
   <rect x="479.55206" y="49.192875" width="70.462349" height="302.2"/>
  </clipPath>
  <clipPath id="p462b1a7497">
   <rect x="568.041472" y="49.192875" width="70.462349" height="302.2"/>
  </clipPath>
  <clipPath id="p83df7b01d9">
   <rect x="656.530884" y="49.192875" width="70.462349" height="302.2"/>
  </clipPath>
  <clipPath id="p646d66a4fc">
   <rect x="833.509708" y="49.192875" width="70.462349" height="302.2"/>
  </clipPath>
  <clipPath id="pf56ae39d0c">
   <rect x="921.99912" y="49.192875" width="70.462349" height="302.2"/>
  </clipPath>
  <clipPath id="p4e4b6669dc">
   <rect x="745.020296" y="49.192875" width="70.462349" height="302.2"/>
  </clipPath>
 </defs>
</svg>
